<svg xmlns="http://www.w3.org/2000/svg" viewBox="0 0 200 200">
  <circle cx="100" cy="100" r="95" fill="none" stroke="#000" stroke-width="2"/>
  
  <!-- Cuadrante superior izquierdo (verde claro) -->
  <path d="M 100 100 L 100 10 A 90 90 0 0 1 163.64 36.36 Z" fill="#C8D6A0"/>
  
  <!-- Cuadrante superior derecho (verde claro) -->
  <path d="M 100 100 L 163.64 36.36 A 90 90 0 0 1 190 100 Z" fill="#C8D6A0"/>
  
  <!-- Cuadrante inferior derecho (verde claro) -->
  <path d="M 100 100 L 190 100 A 90 90 0 0 1 163.64 163.64 Z" fill="#C8D6A0"/>
  
  <!-- Cuadrante inferior izquierdo (verde principal - más grande) -->
  <path d="M 100 100 L 163.64 163.64 A 90 90 0 0 1 10 100 L 100 100 L 100 10 A 90 90 0 0 1 36.36 36.36 Z" fill="#9DC110"/>
  
  <!-- Líneas blancas divisorias -->
  <line x1="100" y1="10" x2="100" y2="190" stroke="white" stroke-width="4"/>
  <line x1="10" y1="100" x2="190" y2="100" stroke="white" stroke-width="4"/>
  
  <!-- Texto curvo superior -->
  <path id="curveTop" d="M 30,80 A 70,70 0 0,1 170,80" fill="none"/>
  <text font-family="Open Sans, sans-serif" font-size="18" font-weight="bold" fill="#000">
    <textPath href="#curveTop" startOffset="50%" text-anchor="middle">
      TALENTO INMOBILIARIO
    </textPath>
  </text>
  
  <!-- Texto curvo inferior -->
  <path id="curveBottom" d="M 30,120 A 70,70 0 0,0 170,120" fill="none"/>
  <text font-family="Open Sans, sans-serif" font-size="14" fill="#000">
    <textPath href="#curveBottom" startOffset="50%" text-anchor="middle">
      Supervisión Técnica
    </textPath>
  </text>
</svg>
